<svg xmlns="http://www.w3.org/2000/svg" width="19.997" height="18.017" viewBox="0 0 19.997 18.017"><path d="M20.3,2.984a2.437,2.437,0,0,0-.787.188c-.215.085-.988.41-2.219.926s-2.861,1.2-4.6,1.932L3.313,9.979a2.4,2.4,0,0,0-.656.35A1.762,1.762,0,0,0,2,11.637a1.734,1.734,0,0,0,.5,1.176,2.239,2.239,0,0,0,.779.479v0c.78.311,3.109,1.243,3.664,1.465.2.59,1.041,3.113,1.242,3.748h0a2.969,2.969,0,0,0,.473.986,1.362,1.362,0,0,0,.352.32,1.159,1.159,0,0,0,.174.084l.025.008-.023-.006c.017.007.033.017.051.023a.679.679,0,0,0,.088.017,1.356,1.356,0,0,0,1.277-.225l.021-.016,2.348-1.986,2.875,2.66A1.683,1.683,0,0,0,17.262,21a1.833,1.833,0,0,0,1.3-.576,1.893,1.893,0,0,0,.547-1.006l0,0c.064-.33,2.816-14.15,2.816-14.15l-.006.023a2.31,2.31,0,0,0,.01-1.129,1.62,1.62,0,0,0-.7-.937A1.65,1.65,0,0,0,20.3,2.984Zm-.395,2.189c-.109.546-2.574,12.932-2.727,13.709l-4.152-3.842-2.807,2.373L11,14.375s5.362-5.428,5.685-5.744c.26-.253.315-.342.315-.43a.181.181,0,0,0-.2-.2.923.923,0,0,0-.385.176c-1.144.713-6.015,3.489-8.41,4.852-.144-.058-2.308-.927-3.475-1.392l8.941-3.762,4.6-1.932C19.108,5.506,19.649,5.281,19.908,5.174ZM17.152,19.025h0l0,.006C17.154,19.025,17.151,19.031,17.152,19.025Z" transform="translate(-2.004 -2.983)" fill="#d4af37"/></svg>